<?xml version="1.0" standalone="no"?>
<!DOCTYPE svg PUBLIC "-//W3C//DTD SVG 20010904//EN"
 "http://www.w3.org/TR/2001/REC-SVG-20010904/DTD/svg10.dtd">
<svg version="1.0" xmlns="http://www.w3.org/2000/svg"
 width="577.000000pt" height="577.000000pt" viewBox="0 0 577.000000 577.000000"
 preserveAspectRatio="xMidYMid meet">
<metadata>
Created by potrace 1.11, written by Peter Selinger 2001-2013
</metadata>
<g transform="translate(0.000000,577.000000) scale(0.100000,-0.100000)"
fill="#000000" stroke="none">
<path d="M2817 5764 c-1 -1 -54 -4 -117 -8 -63 -4 -126 -8 -140 -10 -14 -2
-48 -7 -75 -10 -28 -4 -57 -9 -65 -11 -8 -2 -37 -6 -64 -10 -27 -3 -52 -8 -55
-10 -3 -1 -22 -6 -41 -9 -19 -3 -69 -15 -110 -26 -41 -12 -82 -22 -90 -25 -99
-25 -305 -107 -460 -182 -218 -107 -502 -299 -646 -438 -175 -168 -186 -179
-280 -290 -28 -33 -74 -91 -102 -130 -28 -38 -56 -76 -62 -82 -6 -7 -20 -30
-32 -50 -12 -21 -25 -40 -28 -43 -13 -12 -98 -163 -152 -272 -60 -120 -148
-335 -148 -361 0 -7 -3 -17 -7 -21 -5 -4 -8 -11 -9 -14 -1 -13 -16 -68 -30
-109 -7 -23 -16 -53 -19 -68 -5 -23 -12 -58 -20 -95 -2 -8 -4 -15 -5 -15 -1 0
-3 -11 -5 -25 -2 -14 -6 -38 -9 -55 -14 -69 -26 -155 -33 -230 -10 -100 -10
-477 0 -570 7 -64 10 -84 21 -155 5 -32 17 -99 23 -125 2 -11 7 -33 9 -50 14
-79 108 -390 124 -410 5 -5 9 -13 9 -18 0 -4 8 -23 16 -43 8 -20 15 -38 15
-40 0 -26 204 -406 221 -412 5 -2 9 -8 9 -12 0 -12 81 -129 149 -214 l55 -69
20 44 c12 24 24 46 29 47 4 2 7 8 7 14 0 6 20 52 44 102 24 50 92 190 150 311
59 121 111 229 116 240 8 20 42 93 125 270 64 135 124 263 209 438 42 86 76
162 76 167 0 6 5 10 10 10 6 0 10 6 10 13 0 8 16 44 35 80 20 37 32 67 28 67
-4 0 -3 4 2 8 6 4 22 32 37 62 296 607 399 822 423 885 27 71 66 149 77 153 4
2 8 8 8 14 0 25 128 178 150 178 5 0 10 4 10 9 0 5 30 24 68 42 54 26 82 33
143 35 157 6 286 -53 379 -175 41 -55 124 -212 141 -270 7 -22 16 -41 21 -41
4 0 8 -5 8 -11 0 -6 25 -63 56 -127 80 -166 279 -573 355 -727 35 -71 64 -133
64 -137 0 -4 6 -13 13 -20 6 -6 12 -18 12 -26 0 -8 8 -26 18 -40 10 -15 29
-53 43 -84 13 -32 29 -58 34 -58 8 0 37 53 50 90 2 7 79 169 140 295 95 198
165 346 165 352 0 11 45 98 53 101 4 2 7 10 7 17 0 7 31 78 69 158 39 80 84
175 100 211 17 35 67 141 112 233 45 92 100 209 124 258 23 50 93 194 155 320
61 127 116 239 121 250 5 11 33 66 63 123 l53 103 -61 53 c-34 29 -92 76 -131
104 -38 28 -74 55 -80 60 -93 72 -401 240 -555 301 -84 33 -241 89 -270 96 -8
2 -51 13 -94 25 -76 20 -148 36 -211 46 -16 3 -41 7 -55 10 -14 2 -45 7 -70
10 -25 3 -56 7 -70 9 -51 9 -375 25 -383 19z"/>
<path d="M5373 4298 c-6 -7 -16 -30 -24 -50 -7 -21 -17 -38 -23 -38 -5 0 -7
-3 -3 -6 6 -6 -29 -82 -81 -179 -17 -33 -41 -89 -40 -99 0 -5 -4 -12 -9 -15
-5 -3 -19 -26 -30 -51 -12 -25 -48 -101 -81 -170 -66 -137 -132 -280 -132
-285 0 -4 -76 -167 -124 -266 -20 -41 -36 -78 -36 -83 0 -5 -7 -17 -16 -27 -8
-9 -17 -23 -18 -31 -1 -7 -32 -75 -69 -151 -37 -76 -67 -143 -67 -148 0 -5 -4
-9 -10 -9 -5 0 -10 -5 -10 -12 0 -7 -36 -85 -80 -175 -44 -89 -80 -165 -80
-169 0 -3 -10 -20 -22 -37 -13 -18 -22 -33 -20 -35 3 -3 -16 -44 -228 -477
-207 -424 -250 -515 -248 -519 4 -6 -89 -76 -101 -76 -5 0 -11 -3 -13 -7 -5
-12 -87 -50 -133 -62 -160 -43 -384 44 -454 177 -32 60 -366 727 -367 732 0 3
-29 64 -63 135 -35 72 -90 186 -123 255 -33 69 -92 192 -131 274 l-72 148 -56
-118 c-31 -66 -99 -207 -151 -314 -52 -107 -116 -240 -142 -295 -26 -55 -52
-109 -58 -120 -15 -26 -53 -103 -88 -180 -15 -33 -54 -114 -85 -180 -32 -66
-70 -147 -85 -180 -26 -55 -93 -196 -205 -430 -151 -314 -195 -408 -195 -416
0 -5 -4 -9 -10 -9 -5 0 -9 -3 -8 -7 1 -5 -12 -36 -29 -70 l-31 -62 93 -56 c51
-30 96 -55 100 -55 4 0 21 -10 38 -22 18 -13 33 -22 34 -21 2 1 46 -18 98 -42
53 -25 102 -45 109 -45 6 0 16 -4 21 -9 9 -8 202 -77 243 -86 9 -3 68 -18 131
-34 63 -16 117 -30 120 -29 3 0 8 -1 11 -2 8 -3 119 -22 153 -26 9 -1 18 -2
20 -3 4 -3 101 -12 168 -15 36 -2 70 -5 75 -7 8 -4 299 -3 299 1 0 0 32 3 70
5 192 12 448 63 660 131 61 19 119 39 130 44 11 5 49 21 85 35 96 39 274 126
282 139 4 6 8 7 8 2 0 -5 8 -3 18 5 16 13 39 27 87 53 73 40 299 207 395 291
116 102 348 346 374 393 5 10 12 19 15 22 4 3 28 34 53 70 26 36 52 70 58 77
5 7 10 17 10 23 0 5 5 10 10 10 6 0 10 4 10 8 0 5 23 47 51 93 112 185 219
427 280 631 18 56 33 110 34 118 2 8 4 15 5 15 1 0 3 7 5 15 1 8 10 51 20 95
9 44 18 91 20 105 2 14 6 36 9 50 6 35 15 101 23 184 14 139 7 517 -11 626 -3
14 -10 61 -16 105 -7 44 -13 85 -15 90 -77 340 -151 542 -308 838 -11 21 -17
24 -24 15z"/>
</g>
</svg>
