<?xml version="1.0" encoding="UTF-8"?>
<svg xmlns="http://www.w3.org/2000/svg" xmlns:xlink="http://www.w3.org/1999/xlink" width="32pt" height="36pt" viewBox="0 0 32 36" version="1.1">
<g id="surface1">
<path style=" stroke:none;fill-rule:nonzero;fill:rgb(0%,0%,0%);fill-opacity:1;" d="M 16.007812 9.914062 C 11.464844 9.914062 7.800781 13.519531 7.800781 17.992188 C 7.800781 22.464844 11.464844 26.070312 16.007812 26.070312 C 20.550781 26.070312 24.214844 22.464844 24.214844 17.992188 C 24.214844 13.519531 20.550781 9.914062 16.007812 9.914062 Z M 16.007812 23.246094 C 13.070312 23.246094 10.671875 20.890625 10.671875 17.992188 C 10.671875 15.097656 13.0625 12.742188 16.007812 12.742188 C 18.949219 12.742188 21.34375 15.097656 21.34375 17.992188 C 21.34375 20.890625 18.941406 23.246094 16.007812 23.246094 Z M 26.464844 9.582031 C 26.464844 10.632812 25.605469 11.46875 24.550781 11.46875 C 23.484375 11.46875 22.636719 10.625 22.636719 9.582031 C 22.636719 8.542969 23.492188 7.699219 24.550781 7.699219 C 25.605469 7.699219 26.464844 8.542969 26.464844 9.582031 Z M 31.898438 11.496094 C 31.777344 8.972656 31.191406 6.734375 29.3125 4.894531 C 27.441406 3.050781 25.171875 2.476562 22.605469 2.347656 C 19.964844 2.199219 12.042969 2.199219 9.398438 2.347656 C 6.84375 2.46875 4.570312 3.042969 2.691406 4.886719 C 0.8125 6.730469 0.234375 8.964844 0.105469 11.488281 C -0.0429688 14.089844 -0.0429688 21.886719 0.105469 24.488281 C 0.230469 27.015625 0.8125 29.25 2.691406 31.09375 C 4.570312 32.933594 6.835938 33.511719 9.398438 33.636719 C 12.042969 33.785156 19.964844 33.785156 22.605469 33.636719 C 25.171875 33.519531 27.441406 32.941406 29.3125 31.09375 C 31.1875 29.25 31.769531 27.015625 31.898438 24.488281 C 32.050781 21.886719 32.050781 14.097656 31.898438 11.496094 Z M 28.484375 27.28125 C 27.929688 28.660156 26.851562 29.722656 25.441406 30.277344 C 23.335938 31.097656 18.335938 30.910156 16.007812 30.910156 C 13.679688 30.910156 8.671875 31.09375 6.570312 30.277344 C 5.171875 29.726562 4.09375 28.667969 3.527344 27.28125 C 2.691406 25.207031 2.886719 20.285156 2.886719 17.992188 C 2.886719 15.699219 2.699219 10.773438 3.527344 8.703125 C 4.085938 7.328125 5.164062 6.265625 6.570312 5.710938 C 8.679688 4.886719 13.679688 5.078125 16.007812 5.078125 C 18.335938 5.078125 23.34375 4.894531 25.441406 5.710938 C 26.84375 6.257812 27.921875 7.320312 28.484375 8.703125 C 29.320312 10.777344 29.128906 15.699219 29.128906 17.992188 C 29.128906 20.285156 29.320312 25.214844 28.484375 27.28125 Z M 28.484375 27.28125 "/>
</g>
</svg>
