<?xml version="1.0" encoding="UTF-8"?>
<svg xmlns="http://www.w3.org/2000/svg" xmlns:xlink="http://www.w3.org/1999/xlink" width="32pt" height="32pt" viewBox="0 0 32 32" version="1.1">
<g id="surface1">
<path style=" stroke:none;fill-rule:nonzero;fill:rgb(0%,0%,0%);fill-opacity:1;" d="M 28.710938 9.480469 C 28.730469 9.765625 28.730469 10.050781 28.730469 10.335938 C 28.730469 19.003906 22.132812 28.996094 10.070312 28.996094 C 6.355469 28.996094 2.902344 27.917969 0 26.050781 C 0.527344 26.113281 1.035156 26.132812 1.582031 26.132812 C 4.648438 26.132812 7.472656 25.097656 9.726562 23.328125 C 6.84375 23.269531 4.425781 21.378906 3.59375 18.78125 C 4 18.84375 4.40625 18.882812 4.832031 18.882812 C 5.421875 18.882812 6.011719 18.800781 6.558594 18.660156 C 3.554688 18.050781 1.300781 15.410156 1.300781 12.222656 L 1.300781 12.140625 C 2.171875 12.628906 3.1875 12.933594 4.265625 12.976562 C 2.496094 11.796875 1.339844 9.785156 1.339844 7.511719 C 1.339844 6.292969 1.664062 5.175781 2.234375 4.203125 C 5.460938 8.183594 10.316406 10.78125 15.757812 11.066406 C 15.65625 10.578125 15.59375 10.070312 15.59375 9.5625 C 15.59375 5.949219 18.519531 3.003906 22.152344 3.003906 C 24.039062 3.003906 25.746094 3.796875 26.945312 5.078125 C 28.425781 4.792969 29.847656 4.242188 31.105469 3.492188 C 30.617188 5.015625 29.582031 6.292969 28.222656 7.105469 C 29.542969 6.964844 30.820312 6.597656 32 6.089844 C 31.105469 7.390625 29.988281 8.546875 28.710938 9.480469 Z M 28.710938 9.480469 "/>
</g>
</svg>
