<?xml version="1.0" encoding="UTF-8"?>
<svg xmlns="http://www.w3.org/2000/svg" xmlns:xlink="http://www.w3.org/1999/xlink" width="32pt" height="28pt" viewBox="0 0 32 28" version="1.1">
<g id="surface1">
<path style=" stroke:none;fill-rule:nonzero;fill:rgb(0%,0%,0%);fill-opacity:1;" d="M 30.535156 6.785156 C 30.1875 5.492188 29.160156 4.472656 27.855469 4.128906 C 25.488281 3.5 16 3.5 16 3.5 C 16 3.5 6.511719 3.5 4.144531 4.128906 C 2.839844 4.472656 1.8125 5.492188 1.464844 6.785156 C 0.828125 9.128906 0.828125 14.019531 0.828125 14.019531 C 0.828125 14.019531 0.828125 18.914062 1.464844 21.257812 C 1.8125 22.550781 2.839844 23.527344 4.144531 23.871094 C 6.511719 24.5 16 24.5 16 24.5 C 16 24.5 25.488281 24.5 27.855469 23.871094 C 29.160156 23.527344 30.1875 22.550781 30.535156 21.257812 C 31.171875 18.914062 31.171875 14.019531 31.171875 14.019531 C 31.171875 14.019531 31.171875 9.128906 30.535156 6.785156 Z M 12.898438 18.460938 L 12.898438 9.582031 L 20.828125 14.019531 Z M 12.898438 18.460938 "/>
</g>
</svg>
